<svg width="32" height="26" viewBox="0 0 32 26" fill="none" xmlns="http://www.w3.org/2000/svg">
<path d="M29.1419 11.4415C29.434 10.2915 29.1959 9.17983 28.58 8.24281C28.7649 7.03077 28.3287 5.77662 27.4963 4.84098C27.4366 2.00195 25.2573 0 20.4375 0C20 0 19.5 0.000507812 19.0487 0.000507812C12.5747 0.000507812 10.5623 2.03125 8 2.03125H7.32219C6.96969 1.77861 6.50706 1.625 6 1.625H2C0.895437 1.625 0 2.35254 0 3.25V15.4375C0 16.335 0.895437 17.0625 2 17.0625H6C6.74013 17.0625 7.38594 16.7356 7.73175 16.25H8.1725C9.36912 17.1109 11.0483 19.33 12.47 20.4852C13.3242 21.1792 13.1046 26 16.955 26C20.5537 26 22.9094 24.3783 22.9094 20.6817C22.9094 19.7468 22.6638 18.9688 22.3563 18.3183H24.6362C27.6739 18.3183 30 16.2076 30 13.9725C30 13 29.69 12.1956 29.1419 11.4415ZM4 15.0312C3.17156 15.0312 2.5 14.4856 2.5 13.8125C2.5 13.1394 3.17156 12.5938 4 12.5938C4.82844 12.5938 5.5 13.1394 5.5 13.8125C5.5 14.4856 4.82844 15.0312 4 15.0312ZM24.6362 15.8808H18.1369C18.1369 17.8014 19.9094 18.6926 19.9094 20.6817C19.9094 21.8877 19.9094 23.5625 16.955 23.5625C15.7731 22.6022 16.3638 20.2018 14.5913 18.7616C12.9313 17.4124 10.455 13.8125 8.6825 13.8125H8V4.35855C11.3507 4.35855 14.2501 2.43801 18.7275 2.43801H21.0912C23.3107 2.43801 24.8925 3.30738 24.4112 5.78449C25.3612 6.19887 26.0675 7.63496 25.2825 8.70797C26.6313 9.74309 26.4512 11.3011 25.6081 12.0402C26.1988 12.0402 27.0056 13.0005 27 13.9603C26.9944 14.9205 25.9556 15.8808 24.6362 15.8808Z" fill="black"/>
</svg>
