<svg width="34" height="34" viewBox="0 0 34 34" fill="none" xmlns="http://www.w3.org/2000/svg">
<circle cx="17" cy="17" r="17" fill="#4857B0"/>
<path d="M26.3641 15.2568L27.4047 16.0807C27.8454 16.4295 27.8454 16.9936 27.4047 17.3387L18.2969 24.5527C17.8563 24.9016 17.1438 24.9016 16.7079 24.5527L7.59536 17.3387C7.15474 16.9898 7.15474 16.4258 7.59536 16.0807L8.63599 15.2568C9.0813 14.9043 9.80786 14.9117 10.2438 15.2717L15.625 19.7434V9.07812C15.625 8.58457 16.1266 8.1875 16.75 8.1875H18.25C18.8735 8.1875 19.375 8.58457 19.375 9.07812V19.7434L24.7563 15.2717C25.1922 14.908 25.9188 14.9006 26.3641 15.2568Z" fill="white"/>
</svg>
