<svg width="32" height="26" viewBox="0 0 32 26" fill="none" xmlns="http://www.w3.org/2000/svg">
<path d="M29.1419 14.5585C29.69 13.8044 30 13 30 12.0275C30 9.7924 27.6739 7.68168 24.6362 7.68168H22.3563C22.6638 7.03117 22.9094 6.2532 22.9094 5.31832C22.9094 1.62175 20.5537 0 16.955 0C13.1046 0 13.3242 4.82082 12.47 5.51484C11.0483 6.66996 9.36906 8.88911 8.1725 9.75H2C0.895437 9.75 0 10.4775 0 11.375V23.5625C0 24.46 0.895437 25.1875 2 25.1875H6C6.93081 25.1875 7.713 24.6709 7.93612 23.9713C10.7179 24.0221 12.6274 25.9995 19.0487 25.9995C19.5 25.9995 20 26 20.4375 26C25.2573 26 27.4366 23.9981 27.4963 21.159C28.3287 20.2234 28.7649 18.9692 28.58 17.7572C29.1959 16.8202 29.434 15.7085 29.1419 14.5585ZM25.2825 17.292C26.0675 18.365 25.3612 19.8011 24.4112 20.2155C24.8925 22.6926 23.3107 23.562 21.0912 23.562H18.7275C14.2501 23.562 11.3507 21.6414 8 21.6414V12.1875H8.6825C10.455 12.1875 12.9313 8.58762 14.5913 7.23836C16.3638 5.7982 15.7731 3.39777 16.955 2.4375C19.9094 2.4375 19.9094 4.11227 19.9094 5.31832C19.9094 7.30742 18.1369 8.19863 18.1369 10.1192H24.6362C25.9556 10.1192 26.9944 11.0795 27 12.0397C27.0056 12.9995 26.1988 13.9598 25.6081 13.9598C26.4512 14.6989 26.6313 16.2569 25.2825 17.292ZM5.5 21.9375C5.5 22.6106 4.82844 23.1562 4 23.1562C3.17156 23.1562 2.5 22.6106 2.5 21.9375C2.5 21.2644 3.17156 20.7188 4 20.7188C4.82844 20.7188 5.5 21.2644 5.5 21.9375Z" fill="black"/>
</svg>
